<?xml version="1.0" encoding="UTF-8"?>
<svg id="Layer_2" data-name="Layer 2" xmlns="http://www.w3.org/2000/svg" viewBox="0 0 499.42 499.52">
  <g id="Layer_1-2" data-name="Layer 1">
    <path d="M47.9,499.52c-2.24-.89-3.87-2.55-5.39-4.33-3.45-4.01-6.9-8.02-10.34-12.04-.57-.67-1.14-1.36-1.62-2.09-1.56-2.38-1.71-4.86-.16-7.28,.7-1.11,1.58-2.13,2.48-3.08,2.98-3.16,6.01-6.28,9.03-9.42,4.76-4.95,9.52-9.91,14.3-14.84,3.07-3.17,6.18-6.3,9.25-9.47,4.38-4.53,8.72-9.1,13.11-13.63,3.99-4.11,8.05-8.17,12.05-12.27,2.33-2.39,4.6-4.85,6.92-7.26,2.71-2.81,5.46-5.59,8.17-8.4,4.64-4.8,9.26-9.64,13.92-14.43,4.26-4.39,8.58-8.72,12.85-13.1,2.16-2.21,4.23-4.5,6.38-6.72,2.93-3.04,5.92-6.03,8.85-9.06,4.29-4.44,8.54-8.92,12.85-13.35,4.31-4.43,8.67-8.81,12.98-13.23,2.2-2.26,4.33-4.59,6.51-6.86,2.58-2.68,5.19-5.32,7.78-7.99,4.56-4.71,9.1-9.44,13.67-14.14,4.31-4.43,8.65-8.82,12.96-13.25,2.29-2.35,4.5-4.77,6.78-7.13,2.36-2.45,4.76-4.86,7.12-7.31,4.69-4.85,9.34-9.73,14.04-14.56,4.22-4.34,8.49-8.62,12.71-12.96,2.11-2.17,4.15-4.41,6.25-6.59,2.93-3.04,5.91-6.03,8.84-9.07,4.2-4.35,8.37-8.74,12.58-13.08,3.9-4.02,7.87-7.99,11.76-12.02,2.54-2.63,4.99-5.35,7.48-8.03,3.39-3.64,6.78-7.28,10.18-10.92,3.52-3.78,7.05-7.55,10.58-11.32,.82-.87,1.65-1.72,2.55-2.65,8.04,8.41,15.95,16.68,23.94,25.03-1.32,1.41-2.51,2.7-3.72,3.98-3.03,3.2-6.06,6.41-9.1,9.6-2.22,2.32-4.47,4.62-6.68,6.94-4.56,4.79-9.09,9.62-13.68,14.39-4.2,4.35-8.49,8.62-12.71,12.96-2.73,2.8-5.39,5.67-8.09,8.49-1.52,1.59-3.08,3.15-4.61,4.74-4.21,4.34-8.43,8.68-12.63,13.04-4.2,4.36-8.38,8.74-12.57,13.11-3.8,3.95-7.62,7.88-11.43,11.83-3.46,3.58-6.91,7.17-10.38,10.73-4.27,4.37-8.6,8.69-12.85,13.09-5.57,5.75-11.07,11.57-16.63,17.33-4.29,4.44-8.66,8.8-12.97,13.22-2.64,2.71-5.21,5.49-7.85,8.21-4.56,4.71-9.15,9.39-13.71,14.1-2.06,2.13-4.06,4.32-6.12,6.45-2.71,2.81-5.47,5.58-8.18,8.39-4.46,4.62-8.89,9.28-13.37,13.9-3.95,4.07-7.96,8.08-11.91,12.14-2.33,2.39-4.6,4.85-6.92,7.26-2.71,2.81-5.46,5.59-8.18,8.4-4.55,4.71-9.08,9.46-13.64,14.16-4.04,4.16-8.14,8.25-12.17,12.42-5.79,5.98-11.52,12.01-17.3,18.01-2.8,2.9-5.64,5.76-8.45,8.66-4.47,4.62-8.9,9.27-13.37,13.9-1.53,1.59-3.03,3.21-4.69,4.66-1.21,1.06-2.65,1.86-3.99,2.77h-3.41Z"/>
    <path d="M499.42,1.14c-1.62,4.28-3.29,8.54-4.85,12.84-2.13,5.86-4.14,11.76-6.26,17.63-3.36,9.3-6.77,18.57-10.15,27.86-3.46,9.52-6.91,19.05-10.38,28.58-3.29,9.05-6.59,18.11-9.88,27.16-3.51,9.65-7,19.3-10.51,28.94-3.31,9.11-6.62,18.22-9.97,27.32-1.58,4.31-3.24,8.59-4.92,13.02-.65-.46-1.27-.87-1.85-1.32-4.47-3.5-8.93-7-13.38-10.51-4.65-3.67-9.36-7.26-13.92-11.04-4.82-4-12.53-4.49-18-.73-.31,.21-.6,.46-.86,.73-2.63,2.72-5.22,5.48-7.87,8.18-5.08,5.16-9.81,10.68-15.35,15.37-.09,.08-.22,.12-.47,.24-9.37-10.72-18.77-21.47-28.29-32.35,.98-.83,1.87-1.52,2.67-2.29,5.3-5.14,10.63-10.25,15.83-15.48,3-3.01,4.86-6.75,5.77-10.88,.7-3.17,.04-6.2-2.09-8.7-2.41-2.83-4.97-5.52-7.46-8.28-3.8-4.21-7.59-8.42-11.39-12.62-1.04-1.15-2.11-2.28-3.34-3.6,1.22-.65,2.22-1.15,3.19-1.69,5.85-3.22,11.69-6.46,17.55-9.67,10.5-5.75,21.02-11.49,31.53-17.23,6.53-3.57,13.05-7.13,19.57-10.7,10.29-5.62,20.57-11.24,30.86-16.86,6.91-3.78,13.83-7.55,20.75-11.32,6.8-3.72,13.6-7.44,20.4-11.15,6.86-3.75,13.72-7.49,20.58-11.23,.83-.45,1.66-.89,2.49-1.34V1.14Zm-87.4,98.88c-13.45,9-44.99,41.37-47.69,48.66,1.06-.54,1.96-.96,2.81-1.44,7.36-4.14,13.89-9.37,19.73-15.42,3.71-3.85,7.12-7.98,10.56-12.08,1.82-2.17,3.44-4.51,5.12-6.79,3.17-4.3,6.31-8.62,9.47-12.93Z"/>
    <path d="M98.39,384.67c-.46-9.52-.13-18.76,1.84-27.93,1.94-9.07,4.62-17.89,8.11-26.59-.33,.21-.69,.39-1,.62-6.46,4.96-11.8,10.92-16.42,17.63-4.46,6.49-7.9,13.45-10.8,20.73-2.83,7.08-4.39,14.43-5.37,21.94-.58,4.44-.8,8.91-.77,13.39,0,1.18-.15,2.4-.44,3.55-.43,1.72-1.62,2.93-2.98,4.02-2.85,2.28-5.63,4.64-8.45,6.96-.38,.31-.78,.6-1.23,.93-2.27-2.67-3.87-5.65-5.37-8.7-2.65-5.39-4.46-11.08-6.17-16.83-2.46-8.27-3.55-16.71-3.84-25.31-.31-9.26,.56-18.39,2.9-27.32,2.39-9.09,5.52-17.96,10.05-26.23,3.24-5.91,6.72-11.69,10.21-17.45,3.3-5.44,6.68-10.83,10.19-16.14,3.42-5.17,6.2-10.68,8.98-16.19,1.08-2.14,2.22-4.24,3.35-6.35,.36-.67,.62-1.28-.44-1.91-.73,.42-1.64,.83-2.44,1.4-5.73,4.01-11.46,8.02-17.15,12.07-6.98,4.97-13.87,10.07-20.53,15.48-4.37,3.55-8.54,7.29-12.1,11.62-2.14,2.62-4.01,5.52-5.65,8.48-4.74,8.61-7.41,17.87-8.15,27.69-.29,3.89-.73,7.76-1.11,11.75-.97-.19-1.22-.98-1.63-1.54-3.95-5.37-6.38-11.41-7.74-17.89-1.1-5.24-1.78-10.53-2.1-15.9-.71-11.96,1.05-23.54,5.57-34.59,2.91-7.11,6.46-13.95,11.44-19.92,2.42-2.9,4.73-5.91,7.28-8.69,2.6-2.83,5.34-5.54,8.18-8.13,4.14-3.78,8.38-7.45,12.66-11.08,5.19-4.4,10.53-8.63,15.66-13.09,5.28-4.59,10.38-9.38,15.56-14.09,1.77-1.61,3.56-3.2,5.26-4.88,.84-.84,1.52-1.84,2.19-2.83,.19-.28,.06-.77,.07-1.16-.4,0-.87-.15-1.19,0-2.27,1.09-4.53,2.22-6.76,3.38-5.26,2.74-10.58,5.35-16.16,7.37-7.08,2.56-14.34,4.27-21.9,4.69-11.11,.62-21.7-1.27-31.72-6.15-2.63-1.28-4.96-3-7.16-4.9-5.82-5.06-9.32-11.49-11.06-18.94-.11-.47-.01-.99-.01-1.77,.94,.56,1.58,.94,2.22,1.32,6.15,3.67,12.76,6.02,19.89,6.7,5.23,.5,10.45,.19,15.63-.8,11.31-2.15,21.38-6.96,30.42-14.05,7.86-6.16,14.48-13.47,20.33-21.51,3.74-5.14,7.31-10.42,10.85-15.7,3.16-4.71,6.09-9.57,9.27-14.27,3.35-4.96,6.72-9.92,10.35-14.67,3.05-4,6.3-7.89,9.77-11.53,5.93-6.22,12.42-11.83,19.96-16.08,7.48-4.21,15.46-7,23.96-8.35,5.71-.9,11.44-1.06,17.16-.62,6.81,.53,13.43,2.05,19.88,4.36,9.31,3.34,17.67,8.28,25.15,14.72,6.69,5.77,12.13,12.57,16.7,20.15,5.5,9.13,8.93,18.98,11.24,29.32,1.42,6.36,2,12.78,2.28,19.27,.36,8.53-.09,17.02-1.62,25.39-2.01,10.99-4.96,21.74-9.8,31.86-2.96,6.19-6.09,12.33-10.01,17.99-3.27,4.71-6.63,9.36-10.2,13.85-3.21,4.04-6.72,7.84-10.15,11.7-3.27,3.67-6.58,7.29-9.93,10.89-4.29,4.61-8.65,9.15-12.96,13.74-2.24,2.39-4.44,4.83-6.69,7.21-2.16,2.29-4.39,4.52-6.56,6.8-4.79,5.01-9.54,10.06-14.34,15.06-4.06,4.23-8.16,8.41-12.23,12.63-2.89,3-5.73,6.04-8.63,9.02-3.77,3.89-7.6,7.73-11.37,11.61-2.81,2.89-5.57,5.84-8.37,8.75-1.75,1.81-3.53,3.59-5.29,5.4-5.49,5.65-10.98,11.3-16.47,16.95-2.94,3.03-5.88,6.06-8.83,9.09-.91,.93-1.81,1.87-3.23,2.55ZM190.83,125.89c-1.57,.39-3.22,.6-4.69,1.22-3.04,1.28-4.16,4.16-4.9,7.02-.84,3.27-.62,6.54,.65,9.81,2.17,5.57,5.69,9.77,11.29,12.02,6.5,2.61,12.88,2.65,19-1.19,3.31-2.08,4.78-5.55,4.01-9.43-.53-2.66-1.74-5.03-3.45-7.07-3.48-4.14-7.56-7.58-12.56-9.79-2.96-1.31-5.98-2.37-9.34-2.59Zm61.12,3.48c-2.02,1.57-3.98,2.95-5.76,4.52-2.94,2.6-5.57,5.47-6.97,9.26-1.02,2.77-1.5,5.59-.78,8.51,1.22,4.95,6.29,7.05,10.68,4.45,2.25-1.34,3.84-3.32,4.77-5.69,2.84-7.23,1.74-14.15-1.93-21.05Z"/>
  </g>
</svg>